<svg width="28" height="29" viewBox="0 0 28 29" fill="none" xmlns="http://www.w3.org/2000/svg">
<path d="M10.7568 0C16.7434 0 21.577 4.864 21.5771 10.8193C21.5771 13.189 20.797 15.3721 19.5186 17.1494L28 25.6299L25.6299 28.0625L17.1494 19.5811C15.3721 20.8595 13.189 21.6396 10.8193 21.6396C4.83282 21.6395 0 16.7747 0 10.8193C0.000140438 4.86413 4.77048 0.000217711 10.7568 0ZM10.7881 2.27637C6.08009 2.27655 2.24526 6.11133 2.24512 10.8193C2.24512 15.5275 6.08 19.3631 10.7881 19.3633C15.4963 19.3633 19.332 15.5276 19.332 10.8193C19.3319 6.11122 15.4962 2.27637 10.7881 2.27637ZM12.5029 18.6143C11.9418 18.7389 11.3804 18.8018 10.7881 18.8018C10.1958 18.8017 9.63439 18.739 9.07324 18.6143V12.6904H12.5029V18.6143ZM7.82617 18.2402C6.48545 17.679 5.30077 16.7747 4.42773 15.6211V10.8193H7.82617V18.2402ZM17.1494 15.6211C16.2765 16.7746 15.0915 17.679 13.751 18.2402V7.14062H17.1494V15.6211Z" fill="black"/>
</svg>
