<svg width="25" height="30" viewBox="0 0 25 30" fill="none" xmlns="http://www.w3.org/2000/svg">
<path d="M12.2465 1.66618C12.9732 1.66618 13.5644 2.25737 13.5644 2.98401V4.44612L14.85 4.34961L14.8822 2.98401C14.8822 1.53072 13.7011 0.349609 12.2478 0.349609C10.7945 0.349609 9.6134 1.53072 9.6134 2.98401V4.38437L10.85 4.34961L10.9312 2.98401C10.9287 2.25737 11.5199 1.66618 12.2465 1.66618Z" fill="black"/>
<path d="M13.214 2.98438C13.214 2.45103 12.7796 2.0166 12.2462 2.0166C11.7129 2.01678 11.2797 2.45054 11.2814 2.98242V2.99414L11.2804 3.00488L11.1993 4.37012L11.1808 4.69043L10.8595 4.69922L9.62317 4.73438L9.26379 4.74414V2.98438C9.26379 1.33779 10.6016 0 12.2482 0C13.8946 0.000195784 15.2325 1.33791 15.2325 2.98438V2.99219L15.2003 4.35742L15.1925 4.6748L14.8761 4.69824L13.214 4.82324V2.98438ZM13.5646 4.44629L14.8497 4.34961L14.882 2.98438C14.882 1.62186 13.844 0.498292 12.5167 0.363281L12.2482 0.349609C10.7949 0.349609 9.6134 1.53109 9.6134 2.98438V4.38477L10.8497 4.34961L10.9308 2.98438C10.9283 2.25784 11.5197 1.66619 12.2462 1.66602C12.9729 1.66602 13.5646 2.25773 13.5646 2.98438V4.44629Z" fill="black"/>
<path d="M12.2413 27.3543C11.4083 27.3543 10.6424 27.0644 10.136 26.5568C9.89552 26.3163 9.61069 25.9175 9.61069 25.3795L8.29285 25.377C8.29158 26.1492 8.6144 26.8986 9.20306 27.4885C9.95375 28.2405 11.0614 28.6722 12.24 28.6722C14.4187 28.6722 16.1935 27.1948 16.1973 25.3795L14.8795 25.377C14.8782 26.4682 13.6946 27.3543 12.2413 27.3543Z" fill="black"/>
<path d="M9.61023 25.3799L8.29285 25.377C8.29159 26.1491 8.61444 26.8984 9.20301 27.4883C9.90688 28.1933 10.9247 28.6169 12.0204 28.667L12.2401 28.6719C14.4186 28.6718 16.1931 27.195 16.1971 25.3799L14.8798 25.377C14.8785 26.4682 13.6944 27.3545 12.2411 27.3545V27.0039C12.8991 27.0039 13.4836 26.8036 13.8954 26.4951C14.307 26.1867 14.5286 25.7873 14.5292 25.377L14.5302 25.0264L14.8798 25.0273L16.1981 25.0293L16.5477 25.0303V25.3799C16.5434 27.445 14.5496 29.0224 12.2401 29.0225C10.9797 29.0225 9.77878 28.5606 8.95496 27.7354C8.30658 27.0854 7.94181 26.2486 7.94324 25.376V25.0264L8.29383 25.0273L9.61121 25.0293L9.96082 25.0303V25.3799C9.96094 25.7365 10.1257 26.0221 10.3055 26.2266L10.3837 26.3096C10.8136 26.7406 11.4848 27.0039 12.2411 27.0039V27.3545L11.9325 27.3408C11.2209 27.2784 10.5787 27.0008 10.1356 26.5566C9.92515 26.3461 9.68059 26.0143 9.62293 25.5742L9.61023 25.3799Z" fill="black"/>
<path d="M24.0879 21.9211C24.1728 20.9957 24.2728 19.5969 23.6664 18.4778L23.5613 18.3677C23.3803 18.1524 23.1663 17.9537 22.9397 17.7448C22.0536 16.9232 20.8396 15.7978 20.5788 12.4887C20.2256 8.09208 17.2494 3.64233 12.2464 3.64233C7.24345 3.64233 4.26725 8.09208 3.91405 12.4887C3.65201 15.7965 2.43924 16.922 1.55309 17.7435C1.32649 17.9537 1.11255 18.1524 0.931518 18.3664L0.856828 18.4765C0.250446 19.5956 0.320073 20.9932 0.406156 21.9199C0.428943 22.1642 0.390965 22.3769 0.390965 22.5427V22.9288L0.785935 23.1187C3.57352 24.6771 7.227 25.4024 12.2173 25.4024C17.2089 25.4024 20.9041 24.6771 23.693 23.1187L24.1031 22.9301V22.544C24.1031 22.3781 24.0652 22.1642 24.0879 21.9211ZM22.7169 21.7996C22.7055 21.9199 22.6954 22.0338 22.6878 22.1401C20.1433 23.4656 16.8114 24.0846 12.2477 24.0846C7.684 24.0846 4.35207 23.4656 1.80628 22.1401C1.79741 22.0338 1.78729 21.9199 1.77716 21.7996C1.70374 21.0071 1.60499 19.9298 1.98477 19.1652C2.10883 19.0272 2.26834 18.8791 2.45064 18.7095C3.4368 17.7955 4.9268 16.4131 5.22936 12.5937C5.52432 8.91747 7.8473 4.96017 12.2477 4.96017C16.6481 4.96017 18.971 8.91747 19.266 12.5937C19.5686 16.4143 21.0598 17.7967 22.046 18.7107C22.2283 18.8804 22.3878 19.0285 22.5119 19.1665C22.8891 19.9285 22.7891 21.0071 22.7169 21.7996Z" fill="black"/>
<path d="M0.0413233 22.5427C0.0413233 22.4451 0.0524913 22.3234 0.0579248 22.238C0.0640968 22.1409 0.0668176 22.0473 0.0579248 21.9519C-0.02787 21.0282 -0.11294 19.5312 0.549136 18.3093L0.556948 18.2947L0.566714 18.28L0.641909 18.1697L0.652651 18.1541L0.66437 18.1404C0.861421 17.9075 1.09131 17.6943 1.31476 17.4871C1.75561 17.0783 2.24474 16.6233 2.66242 15.8777C3.07993 15.1323 3.43693 14.0743 3.56476 12.4607L3.60675 12.0388C4.11979 7.67613 7.15377 3.29272 12.2464 3.29272C17.5032 3.29275 20.5668 7.96348 20.928 12.4607L20.9857 13.0408C21.145 14.3349 21.4649 15.2263 21.8304 15.8787C22.2479 16.6239 22.7364 17.0785 23.1771 17.4871L23.513 17.8044C23.618 17.9078 23.72 18.0144 23.8148 18.1257L23.9193 18.2361L23.9515 18.2703L23.9739 18.3113C24.6375 19.5361 24.5205 21.0395 24.4368 21.9529V21.9539C24.428 22.0485 24.4297 22.1415 24.4359 22.239C24.4413 22.3245 24.4534 22.4462 24.4534 22.5437V23.1541L24.2493 23.2478L23.8558 23.4275C20.9937 25.0244 17.2325 25.7527 12.2171 25.7527C7.20912 25.7527 3.49302 25.0267 0.634097 23.4343L0.239565 23.2439L0.0413233 23.1492V22.5427ZM12.2474 4.95972C16.6477 4.95972 18.9709 8.91731 19.2659 12.5935C19.5685 16.4141 21.06 17.7967 22.0462 18.7107C22.2284 18.8803 22.388 19.0288 22.512 19.1667C22.8891 19.9288 22.7893 21.0072 22.7171 21.7996C22.7057 21.9198 22.6954 22.034 22.6878 22.1404C20.1433 23.4658 16.811 24.0847 12.2474 24.0847V23.7341C16.6819 23.7341 19.902 23.1423 22.3548 21.9128C22.359 21.8649 22.3638 21.8159 22.3685 21.7664C22.4048 21.3673 22.4454 20.9204 22.4329 20.4812C22.4209 20.0589 22.3588 19.6738 22.2171 19.365C22.1104 19.2508 21.9761 19.123 21.8079 18.9666C21.3123 18.5071 20.6573 17.903 20.095 16.9158C19.5321 15.9274 19.0721 14.5753 18.9173 12.6218C18.7744 10.8409 18.1398 9.00278 17.0237 7.61792C15.9142 6.24127 14.3291 5.3103 12.2474 5.3103C10.1657 5.31038 8.58047 6.24129 7.47101 7.61792C6.35501 9.00276 5.72131 10.841 5.57843 12.6218C5.42371 14.5744 4.96316 15.9257 4.4007 16.9138C3.83854 17.9013 3.18459 18.507 2.68878 18.9666L2.68781 18.9656C2.51917 19.1225 2.38449 19.2505 2.27765 19.365C2.13513 19.675 2.07322 20.0606 2.06085 20.4822C2.05441 20.702 2.06132 20.9238 2.07453 21.1404L2.12531 21.7673L2.12628 21.7703C2.13025 21.8174 2.13391 21.8654 2.138 21.9128C4.59209 23.1426 7.81246 23.7341 12.2474 23.7341V24.0847L11.4066 24.0769C7.27067 24.0041 4.1927 23.383 1.80597 22.1404C1.79711 22.034 1.7868 21.9198 1.77667 21.7996C1.70325 21.0071 1.60491 19.9294 1.98468 19.1648C2.10868 19.0269 2.26837 18.8792 2.4505 18.7097C3.43666 17.7957 4.92627 16.4128 5.22882 12.5935C5.52385 8.91736 7.84723 4.95986 12.2474 4.95972ZM0.390933 22.9285L0.785464 23.1189C3.57302 24.6772 7.22687 25.4021 12.2171 25.4021C17.2085 25.4021 20.9039 24.6772 23.6927 23.1189L24.1028 22.9304V22.5437C24.1028 22.4193 24.0814 22.2679 24.0804 22.0974L24.0882 21.9207C24.1677 21.0532 24.2599 19.7701 23.7718 18.6912L23.6663 18.4783L23.5609 18.3679C23.4703 18.2603 23.3723 18.1562 23.2679 18.0535L22.9398 17.7449C22.109 16.9746 20.9895 15.9373 20.638 13.0837L20.5784 12.489C20.2363 8.22978 17.4327 3.92011 12.7093 3.65503L12.2464 3.64233C7.24344 3.64233 4.26756 8.09243 3.91437 12.489L3.85382 13.0837C3.50142 15.936 2.38381 16.9737 1.55304 17.7439L1.22492 18.0535C1.12051 18.1561 1.02146 18.259 0.930972 18.366L0.856753 18.4763C0.250401 19.5953 0.32048 20.993 0.406558 21.9197C0.429344 22.164 0.390933 22.3769 0.390933 22.5427V22.9285Z" fill="black"/>
</svg>
