<svg width="28" height="28" viewBox="0 0 28 28" fill="none" xmlns="http://www.w3.org/2000/svg">
<path d="M14 14.0031C17.86 14.0031 21 10.8631 21 7.00156C21 3.14152 17.86 0 14 0C10.14 0 7 3.14148 7 7.00156C7 10.8616 10.14 14.0031 14 14.0031ZM14 2.33333C16.5734 2.33333 18.6667 4.42664 18.6667 7.00156C18.6667 9.57491 16.5734 11.6698 14 11.6698C11.4266 11.6698 9.33333 9.57495 9.33333 7.00156C9.33333 4.42816 11.4266 2.33333 14 2.33333Z" fill="black"/>
<path d="M21 16.3364H7C3.13997 16.3364 0 19.4764 0 23.3349V28.0015H2.33333V23.3349C2.33333 20.763 4.42664 18.6698 7 18.6698H21C23.5734 18.6698 25.6667 20.7631 25.6667 23.3349V28.0015H28V23.3349C28 19.4748 24.86 16.3364 21 16.3364Z" fill="black"/>
</svg>
