<svg width="28" height="29" viewBox="0 0 28 29" fill="none" xmlns="http://www.w3.org/2000/svg">
<path d="M28 25.6303L19.5189 17.1492C20.7973 15.3719 21.5768 13.1893 21.5768 10.8196C21.5768 4.86414 16.7439 0 10.7572 0C4.7706 0 0 4.86414 0 10.8196C0 16.7751 4.83296 21.6392 10.8196 21.6392C13.1893 21.6392 15.3719 20.8597 17.1492 19.5813L25.6303 28.0624L28 25.6303ZM2.24499 10.8196C2.24499 6.11136 6.08018 2.27617 10.7884 2.27617C15.4967 2.27617 19.3318 6.11136 19.3318 10.8196C19.3318 15.5278 15.4967 19.363 10.7884 19.363C6.08018 19.363 2.24499 15.5278 2.24499 10.8196Z" fill="black"/>
</svg>
