<svg width="29" height="29" viewBox="0 0 29 29" fill="none" xmlns="http://www.w3.org/2000/svg">
<path d="M16.7812 0L17.6543 4.09668C18.0098 4.22145 18.3565 4.36395 18.6934 4.52344L21.6416 2.35254L25.5146 5.93359L25.6006 6.0127L25.5449 6.11523L25.1992 6.75391L23.6572 9.5957C23.7783 9.87116 23.8871 10.1535 23.9844 10.4424L28.1729 10.9775L28.3086 10.9951L28.3047 11.1309L28.1211 16.499L28.1172 16.6289L27.9873 16.6426L27.2354 16.7227L27.1826 16.7295C27.179 16.7299 27.1755 16.7294 27.1729 16.7295L27.1719 16.7305C27.1679 16.731 27.1618 16.7317 27.1553 16.7324C27.1366 16.7345 27.1083 16.7372 27.0723 16.7412C26.9996 16.7493 26.8944 16.7604 26.7646 16.7754C26.5038 16.8054 26.1431 16.8483 25.7451 16.8994C25.1941 16.9702 24.5904 17.0556 24.0801 17.1416C23.9312 17.6489 23.7487 18.1405 23.5342 18.6143L25.7842 21.7656L25.8564 21.8662L25.7715 21.9561L22.2188 25.7344L22.1348 25.8223L22.0312 25.7588L18.7529 23.7568C18.3495 23.9721 17.9308 24.1608 17.499 24.3223L16.8975 28.1738L16.877 28.3008H11.4502L11.4258 28.1797L10.6914 24.4658C10.1293 24.2826 9.58757 24.0537 9.07031 23.7812L5.91602 25.9307L5.81055 26.0029L5.72266 25.9102L2.16211 22.125L2.08105 22.0381L2.14648 21.9395L4.27832 18.7031C4.12585 18.3739 3.98916 18.0356 3.86816 17.6895L0.297852 16.9141L0.183594 16.8887L0.00390625 11.5918L0 11.4717L3.77246 10.4873C3.89679 10.1128 4.04151 9.74964 4.20508 9.39844L2.79688 6.80957L2.47461 6.21484L2.42383 6.11914L2.49805 6.04004L6.00391 2.3125L6.08984 2.2207L6.19531 2.29004L9.40137 4.37988C9.83183 4.19309 10.2772 4.03349 10.7354 3.90234L11.374 0H16.7812ZM11.0166 4.04395L11.001 4.13867L10.9082 4.16406C10.4049 4.30329 9.91744 4.47873 9.44824 4.68652L9.37402 4.71875L9.30566 4.6748L6.13672 2.60938L2.79004 6.16602L3.06055 6.66602L4.54102 9.38867L4.50781 9.45801C4.32474 9.84354 4.16517 10.2444 4.03125 10.6592L4.00586 10.7373L3.92676 10.7578L0.308594 11.7002L0.474609 16.6455L4.01367 17.4141L4.0957 17.4326L4.12402 17.5127C4.25727 17.9031 4.41107 18.2833 4.58496 18.6514L4.62109 18.7275L2.46191 22.0049L5.85254 25.6094L8.97559 23.4834L9.05078 23.4326L9.13086 23.4756C9.54413 23.698 9.97393 23.892 10.418 24.0557L10.8672 24.209L10.9521 24.2363L10.9688 24.3232L11.6963 28H16.6201L17.2305 24.1035L17.3135 24.0732C17.7882 23.9004 18.2467 23.6925 18.6865 23.4531L18.7627 23.4121L18.8369 23.457L22.083 25.4395L25.4678 21.8398L23.2402 18.7188L23.1904 18.6484L23.2266 18.5693C23.4636 18.0567 23.6619 17.5214 23.8193 16.9678L23.8457 16.877L23.9385 16.8613C24.473 16.769 25.1212 16.6768 25.707 16.6016C26.1068 16.5502 26.4689 16.5077 26.7305 16.4775C26.8613 16.4625 26.9676 16.4514 27.04 16.4434C27.062 16.4409 27.0809 16.4383 27.0967 16.4365L27.0986 16.4355L27.1406 16.4316L27.1514 16.4307L27.8252 16.3584L27.999 11.2578L23.8545 10.7285L23.7607 10.7158L23.7314 10.626C23.622 10.2909 23.497 9.96492 23.3555 9.64941L23.3242 9.58105L23.3604 9.51562L24.9355 6.61133L25.2256 6.07422L21.6182 2.74023L18.7998 4.81836L18.7275 4.87207L18.6455 4.83301C18.2683 4.65042 17.8783 4.48902 17.4766 4.35156L17.3955 4.32422L17.3779 4.24121L16.5381 0.300781H11.6289L11.0166 4.04395ZM15.2744 1.86719L15.2998 1.98535L16.0605 5.5625L16.5146 5.69141C17.1885 5.88303 17.8268 6.14827 18.418 6.47852L18.8564 6.72266L21.4072 4.84082L21.5068 4.76758L23.1855 6.31934L23.2705 6.39844L23.2148 6.50098L21.7607 9.1875L21.5625 9.5498L21.751 9.91895C22.0225 10.4504 22.2411 11.0206 22.3975 11.625L22.5293 12.1377L26.2539 12.6133L26.3896 12.6309L26.3848 12.7676L26.3145 14.8223L26.3105 14.9512L26.1826 14.9668C25.9799 14.9911 25.7513 15.0177 25.5088 15.0488C24.905 15.1263 24.1935 15.2248 23.5967 15.3301L23.5957 15.3291L23.0479 15.4355L23.0488 15.4365L23.0215 15.4424L22.5547 15.5586L22.4482 16.0312C22.2629 16.8542 21.9715 17.634 21.5908 18.3545L21.3643 18.7832L23.377 21.6035L23.4492 21.7041L23.3643 21.7939L21.8984 23.3516L21.8145 23.4404L21.7109 23.377L18.7686 21.5801L18.3613 21.833C17.8037 22.1783 17.207 22.4612 16.5801 22.6719L16.3096 22.7578L15.8359 22.8984L15.3027 26.3066L15.2832 26.4336H12.9805L12.9561 26.3125L12.2959 22.9746L11.8135 22.8535L11.5029 22.7676H11.5C10.8583 22.5787 10.246 22.315 9.67188 21.9863L9.42773 21.8418L8.99609 21.5762L6.18164 23.4922L6.07617 23.5645L5.98828 23.4707L4.5293 21.9199L4.44824 21.833L4.5127 21.7344L6.43359 18.8193L6.21289 18.4072C5.90005 17.8243 5.64539 17.2018 5.45898 16.5488L5.33105 16.0977L2.11035 15.3975L1.99609 15.3721L1.91699 13.0215L1.91309 12.9014L2.02832 12.8711L5.27051 12.0264L5.38867 11.585C5.56106 10.9318 5.80582 10.3181 6.1123 9.75098L6.31348 9.37695L6.11133 9.00293L4.75586 6.50977L4.7041 6.41504L4.77832 6.33594L6.29199 4.72656L6.37793 4.63574L6.4834 4.7041L8.8877 6.27148L9.26562 6.5166L9.66699 6.31348C10.3442 5.97034 11.0779 5.71101 11.8525 5.54492L12.3721 5.43262L12.9355 1.99316L12.9561 1.86719H15.2744ZM12.6367 5.68359L11.915 5.83789C11.1653 5.99865 10.4565 6.2498 9.80273 6.58105L9.32422 6.82422L9.24707 6.86328L9.1748 6.81543L8.72461 6.52344L6.4248 5.02344L5.07031 6.46191L6.375 8.85938L6.61621 9.30566L6.6543 9.37695L6.61621 9.44824L6.37598 9.89355C6.08085 10.4396 5.84504 11.031 5.67871 11.6611L5.53906 12.1885L5.5166 12.2725L5.43262 12.2949L2.2207 13.1309L2.28711 15.1279L5.48242 15.8242L5.57031 15.8428L5.59473 15.9297L5.74805 16.4658L5.89551 16.9346C6.05506 17.3974 6.25037 17.8424 6.47754 18.2656L6.74121 18.7568L6.7832 18.8359L6.73438 18.9102L4.8291 21.7998L6.11914 23.1719L8.9082 21.2734L8.98828 21.2188L9.07129 21.2695L9.58496 21.5859L9.82031 21.7256C10.3739 22.0425 10.964 22.2964 11.582 22.4785L11.8896 22.5635L12.4619 22.708L12.5547 22.7305L12.5732 22.8242L12.6865 23.4033L13.2266 26.1338H15.0264L15.5703 22.665L15.6611 22.6377L16.2236 22.4707C16.9237 22.2614 17.5886 21.9593 18.2041 21.5781L18.6895 21.2773L18.7676 21.2285L18.8467 21.2764L21.7627 23.0566L23.0605 21.6777L21.0664 18.8828L21.0127 18.8066L21.0557 18.7256L21.3252 18.2148L21.459 17.9502C21.7624 17.3275 21.9982 16.6622 22.1553 15.9648L22.2822 15.4033L22.3027 15.3135L22.3916 15.291L22.9482 15.1514C22.9607 15.1483 22.9747 15.1459 22.9854 15.1436L22.9883 15.1426L23.542 15.0352L23.5449 15.0342C24.1488 14.9276 24.8655 14.8287 25.4707 14.751C25.6645 14.7261 25.8497 14.7036 26.0186 14.6836L26.0801 12.8936L22.3916 12.4229L22.29 12.4092L22.2646 12.3115L22.1064 11.6992C21.9556 11.1162 21.7458 10.5665 21.4844 10.0547L21.2607 9.61621L21.2246 9.5459L21.2627 9.47656L21.4971 9.04492L22.8955 6.45996L21.4854 5.15625L18.8789 7.08008L18.7949 7.03223L18.2715 6.74023C17.7012 6.42162 17.0845 6.16588 16.4326 5.98047L15.8926 5.82617L15.8057 5.80176L15.7871 5.71289L15.0322 2.16699H13.2109L12.6367 5.68359ZM18.9697 14.2256C18.9695 11.3213 16.708 8.91125 13.8516 8.91113C10.9951 8.91118 8.73461 11.3213 8.73438 14.2256C8.73444 17.1301 10.995 19.541 13.8516 19.541C16.7081 19.5409 18.9697 17.13 18.9697 14.2256ZM17.1064 14.2256C17.1062 12.278 15.6065 10.7775 13.8516 10.7773C12.0966 10.7774 10.5969 12.2779 10.5967 14.2256C10.5967 16.1734 12.0966 17.6748 13.8516 17.6748C15.6066 17.6747 17.1064 16.1733 17.1064 14.2256ZM17.4062 14.2256C17.4062 16.3274 15.7836 17.9745 13.8516 17.9746C11.9194 17.9746 10.2969 16.3274 10.2969 14.2256C10.2971 12.1239 11.9195 10.4776 13.8516 10.4775C15.7835 10.4777 17.406 12.1239 17.4062 14.2256ZM19.2695 14.2256C19.2695 17.2825 16.8867 19.8407 13.8516 19.8408C10.8163 19.8408 8.43366 17.2825 8.43359 14.2256C8.43383 11.1688 10.8164 8.61138 13.8516 8.61133C16.8866 8.61145 19.2693 11.1689 19.2695 14.2256Z" fill="black"/>
<path fill-rule="evenodd" clip-rule="evenodd" d="M11.0166 4.04395L11.001 4.13867L10.9082 4.16406C10.4049 4.30329 9.91744 4.47873 9.44824 4.68652L9.37402 4.71875L9.30566 4.6748L6.13672 2.60938L2.79004 6.16602L3.06055 6.66602L4.54102 9.38867L4.50781 9.45801C4.32474 9.84354 4.16517 10.2444 4.03125 10.6592L4.00586 10.7373L3.92676 10.7578L0.308594 11.7002L0.474609 16.6455L4.01367 17.4141L4.0957 17.4326L4.12402 17.5127C4.25727 17.9031 4.41107 18.2833 4.58496 18.6514L4.62109 18.7275L2.46191 22.0049L5.85254 25.6094L8.97559 23.4834L9.05078 23.4326L9.13086 23.4756C9.54413 23.698 9.97393 23.892 10.418 24.0557L10.8672 24.209L10.9521 24.2363L10.9688 24.3232L11.6963 28H16.6201L17.2305 24.1035L17.3135 24.0732C17.7882 23.9004 18.2467 23.6925 18.6865 23.4531L18.7627 23.4121L18.8369 23.457L22.083 25.4395L25.4678 21.8398L23.2402 18.7188L23.1904 18.6484L23.2266 18.5693C23.4636 18.0567 23.6619 17.5214 23.8193 16.9678L23.8457 16.877L23.9385 16.8613C24.473 16.769 25.1212 16.6768 25.707 16.6016C26.1068 16.5502 26.4689 16.5077 26.7305 16.4775C26.8613 16.4625 26.9676 16.4514 27.04 16.4434C27.062 16.4409 27.0809 16.4383 27.0967 16.4365L27.0986 16.4355L27.1406 16.4316L27.1514 16.4307L27.8252 16.3584L27.999 11.2578L23.8545 10.7285L23.7607 10.7158L23.7314 10.626C23.622 10.2909 23.497 9.96492 23.3555 9.64941L23.3242 9.58105L23.3604 9.51562L24.9355 6.61133L25.2256 6.07422L21.6182 2.74023L18.7998 4.81836L18.7275 4.87207L18.6455 4.83301C18.2683 4.65042 17.8783 4.48902 17.4766 4.35156L17.3955 4.32422L17.3779 4.24121L16.5381 0.300781H11.6289L11.0166 4.04395ZM15.2998 1.98535L15.2744 1.86719H12.9561L12.9355 1.99316L12.3721 5.43262L11.8525 5.54492C11.0779 5.71101 10.3442 5.97034 9.66699 6.31348L9.26562 6.5166L8.8877 6.27148L6.4834 4.7041L6.37793 4.63574L6.29199 4.72656L4.77832 6.33594L4.7041 6.41504L4.75586 6.50977L6.11133 9.00293L6.31348 9.37695L6.1123 9.75098C5.80582 10.3181 5.56106 10.9318 5.38867 11.585L5.27051 12.0264L2.02832 12.8711L1.91309 12.9014L1.91699 13.0215L1.99609 15.3721L2.11035 15.3975L5.33105 16.0977L5.45898 16.5488C5.64539 17.2018 5.90005 17.8243 6.21289 18.4072L6.43359 18.8193L4.5127 21.7344L4.44824 21.833L4.5293 21.9199L5.98828 23.4707L6.07617 23.5645L6.18164 23.4922L8.99609 21.5762L9.42773 21.8418L9.67188 21.9863C10.246 22.315 10.8583 22.5787 11.5 22.7676H11.5029L11.8135 22.8535L12.2959 22.9746L12.9561 26.3125L12.9805 26.4336H15.2832L15.3027 26.3066L15.8359 22.8984L16.3096 22.7578L16.5801 22.6719C17.207 22.4612 17.8037 22.1783 18.3613 21.833L18.7686 21.5801L21.7109 23.377L21.8145 23.4404L21.8984 23.3516L23.3643 21.7939L23.4492 21.7041L23.377 21.6035L21.3643 18.7832L21.5908 18.3545C21.9715 17.634 22.2629 16.8542 22.4482 16.0312L22.5547 15.5586L23.0215 15.4424L23.0488 15.4365L23.0479 15.4355L23.5957 15.3291L23.5967 15.3301C24.1935 15.2248 24.905 15.1263 25.5088 15.0488C25.7513 15.0177 25.9799 14.9911 26.1826 14.9668L26.3105 14.9512L26.3145 14.8223L26.3848 12.7676L26.3896 12.6309L26.2539 12.6133L22.5293 12.1377L22.3975 11.625C22.2411 11.0206 22.0225 10.4504 21.751 9.91895L21.5625 9.5498L21.7607 9.1875L23.2148 6.50098L23.2705 6.39844L23.1855 6.31934L21.5068 4.76758L21.4072 4.84082L18.8564 6.72266L18.418 6.47852C17.8268 6.14827 17.1885 5.88303 16.5146 5.69141L16.0605 5.5625L15.2998 1.98535Z" fill="black"/>
<path fill-rule="evenodd" clip-rule="evenodd" d="M18.9697 14.2256C18.9695 11.3213 16.708 8.91125 13.8516 8.91113C10.9951 8.91118 8.73461 11.3213 8.73438 14.2256C8.73444 17.1301 10.995 19.541 13.8516 19.541C16.7081 19.5409 18.9697 17.13 18.9697 14.2256ZM13.8516 17.9746C15.7836 17.9745 17.4062 16.3274 17.4062 14.2256C17.406 12.1239 15.7835 10.4777 13.8516 10.4775C11.9195 10.4776 10.2971 12.1239 10.2969 14.2256C10.2969 16.3274 11.9194 17.9746 13.8516 17.9746Z" fill="black"/>
</svg>
