<svg width="120" height="31" viewBox="0 0 120 31" fill="none" xmlns="http://www.w3.org/2000/svg">
<path d="M50.1385 21.7796V24H41.1112V8.03236H50.1385V10.2406H43.7199V14.5844H49.7381V16.7685H43.7199V21.7796H50.1385ZM53.6155 29.3751C53.0493 29.3751 52.4993 29.3145 51.9654 29.1931V27.1547C52.3618 27.2437 52.8026 27.2882 53.2879 27.2882C54.5336 27.2882 55.4032 26.5723 55.8966 25.1405L56.3456 24L51.4922 11.9272H54.2829L56.746 18.7705C57.1181 19.7412 57.3648 20.6593 57.4861 21.5248H57.5711C57.6277 21.1203 57.7652 20.5824 57.9836 19.911C58.202 19.2315 59.112 16.5703 60.7136 11.9272H63.4801L58.3112 25.6016C57.3729 28.1173 55.8077 29.3751 53.6155 29.3751ZM72.035 14.4267C71.5739 13.909 70.9308 13.6502 70.1058 13.6502C69.2807 13.6502 68.6255 13.909 68.1401 14.4267C67.6548 14.9444 67.3636 15.6967 67.2665 16.6835H72.7509C72.7347 15.6967 72.4961 14.9444 72.035 14.4267ZM70.579 24.2184C68.7023 24.2184 67.2342 23.6684 66.1745 22.5683C65.1149 21.4681 64.585 19.9474 64.585 18.0061C64.585 16.0647 65.0744 14.5319 66.0532 13.4075C67.04 12.275 68.3585 11.7088 70.0087 11.7088C71.6669 11.7088 72.9571 12.1941 73.8793 13.1648C74.8095 14.1193 75.2746 15.4499 75.2746 17.1567V18.5399H67.2301C67.2625 19.7128 67.578 20.6148 68.1765 21.2457C68.7751 21.8766 69.6164 22.1921 70.7003 22.1921C72.0188 22.1921 73.3413 21.9009 74.6679 21.3185V23.4055C73.5031 23.9474 72.1401 24.2184 70.579 24.2184ZM81.0065 20.3357C81.0065 20.9343 81.1561 21.3873 81.4554 21.6946C81.7628 21.9939 82.1996 22.1436 82.7658 22.1436C83.3402 22.1436 83.9428 22.0465 84.5737 21.8524V23.7816C83.8862 24.0728 83.057 24.2184 82.0864 24.2184C79.6516 24.2184 78.4342 22.9363 78.4342 20.3721V13.8686H76.784V12.728L78.5555 11.7937L79.4291 9.23357H81.0065V11.9272H84.4524V13.8686H81.0065V20.3357ZM93.7147 14.4267C93.2536 13.909 92.6105 13.6502 91.7854 13.6502C90.9604 13.6502 90.3052 13.909 89.8198 14.4267C89.3345 14.9444 89.0433 15.6967 88.9462 16.6835H94.4305C94.4144 15.6967 94.1757 14.9444 93.7147 14.4267ZM92.2587 24.2184C90.382 24.2184 88.9139 23.6684 87.8542 22.5683C86.7945 21.4681 86.2647 19.9474 86.2647 18.0061C86.2647 16.0647 86.7541 14.5319 87.7329 13.4075C88.7197 12.275 90.0382 11.7088 91.6884 11.7088C93.3466 11.7088 94.6368 12.1941 95.559 13.1648C96.4892 14.1193 96.9543 15.4499 96.9543 17.1567V18.5399H88.9098C88.9422 19.7128 89.2576 20.6148 89.8562 21.2457C90.4548 21.8766 91.2961 22.1921 92.38 22.1921C93.6985 22.1921 95.021 21.9009 96.3476 21.3185V23.4055C95.1828 23.9474 93.8198 24.2184 92.2587 24.2184ZM104.749 24.2184C102.929 24.2184 101.542 23.6886 100.587 22.6289C99.6326 21.5612 99.1553 20.0202 99.1553 18.0061C99.1553 15.9838 99.6488 14.4307 100.636 13.3468C101.631 12.2548 103.07 11.7088 104.955 11.7088C106.233 11.7088 107.378 11.9434 108.389 12.4125L107.612 14.4752C106.545 14.0546 105.651 13.8443 104.931 13.8443C102.844 13.8443 101.8 15.2315 101.8 18.0061C101.8 19.3569 102.059 20.3761 102.577 21.0637C103.095 21.7432 103.855 22.0829 104.858 22.0829C105.999 22.0829 107.083 21.7958 108.11 21.2214V23.4661C107.244 23.9676 106.124 24.2184 104.749 24.2184ZM113.772 20.3357C113.772 20.9343 113.922 21.3873 114.221 21.6946C114.528 21.9939 114.965 22.1436 115.531 22.1436C116.106 22.1436 116.708 22.0465 117.339 21.8524V23.7816C116.652 24.0728 115.823 24.2184 114.852 24.2184C112.417 24.2184 111.2 22.9363 111.2 20.3721V13.8686H109.55V12.728L111.321 11.7937L112.195 9.23357H113.772V11.9272H117.218V13.8686H113.772V20.3357Z" fill="black"/>
<rect x="15" y="1" width="21.2132" height="21.2132" transform="rotate(45 15 1)" fill="black"/>
</svg>
